<?xml version="1.0" encoding="UTF-8"?>
<svg width="600px" height="111px" viewBox="0 0 600 111" version="1.1" xmlns="http://www.w3.org/2000/svg" xmlns:xlink="http://www.w3.org/1999/xlink">
    <title>guardian-logo</title>
    <desc>Created with Sketch.</desc>
    <defs></defs>
    <g id="Welcome" stroke="none" stroke-width="1" fill="none" fill-rule="evenodd">
        <g id="guardian-logo">
            <path d="M36.522,52.125 L36.505,52.125 C26.687,52.125 18.733,44.091 18.733,34.18 C18.733,24.267 26.687,16.234 36.505,16.234 C36.664,16.234 36.823,16.238 36.979,16.242 L37.057,16.242 C37.422,16.252 37.781,16.275 38.14,16.31 C39.233,16.41 40.294,16.61 41.319,16.904 C48.795,19.022 54.275,25.952 54.275,34.18 C54.275,43.394 47.398,50.988 38.541,52.005 C38.387,52.024 38.234,52.041 38.08,52.055 L38.07,52.055 C37.771,52.082 37.474,52.1 37.173,52.114 C37.053,52.116 36.934,52.118 36.815,52.121 C36.718,52.125 36.621,52.125 36.522,52.125 M75.405,16.234 L75.405,0.48 C75.405,0.48 35.81,0.489 35.456,0.504 C31.511,0.64 27.578,1.473 23.914,2.983 C18.843,5.072 14.265,8.449 10.79,12.728 C7.359,16.953 4.953,21.98 3.862,27.33 C2.826,32.42 2.965,37.742 4.278,42.764 C5.494,47.418 7.713,51.784 10.735,55.505 C13.912,59.417 17.983,62.613 22.534,64.726 C27.506,67.037 33.078,68.136 38.549,67.76 C42.503,67.484 46.35,66.548 49.942,64.954 C49.998,64.931 50.054,64.906 50.109,64.88 C50.173,64.85 50.239,64.822 50.305,64.79 C50.67,64.622 51.029,64.449 51.387,64.271 C52.297,63.815 53.186,63.312 54.058,62.771 C54.31,62.613 54.556,62.45 54.801,62.293 C54.829,62.274 54.852,62.26 54.881,62.24 C54.881,62.238 54.883,62.238 54.883,62.238 C54.912,62.219 54.936,62.2 54.962,62.181 C54.978,62.172 54.99,62.162 55.006,62.151 C55.338,61.931 55.666,61.701 55.989,61.461 C59.231,59.111 62.056,56.172 64.277,52.819 C64.786,52.048 65.266,51.255 65.704,50.436 C67.432,47.257 68.638,43.778 69.289,40.226 C70.289,34.73 69.905,29.022 68.205,23.708 C68.021,23.132 67.818,22.559 67.604,21.992 C66.974,20.34 66.219,18.732 65.318,17.213 C65.173,16.968 64.795,16.457 64.657,16.234 L75.405,16.234" id="Fill-1" fill="#03A765"></path>
            <path d="M73.956,73.658 C73.956,94.248 57.368,111 36.978,111 C16.591,111 0,94.248 0,73.658 C0,66.278 2.133,59.392 5.81,53.593 C9.418,59.635 13.484,62.991 17.357,65.227 C16.259,67.818 15.652,70.668 15.652,73.658 C15.652,85.533 25.22,95.195 36.978,95.195 C48.739,95.195 58.304,85.533 58.304,73.658 C58.304,69.636 57.209,65.872 55.297,62.648 C55.205,62.487 55.108,62.326 55.005,62.164 C51.241,56.162 44.619,52.161 37.084,52.124 C37.084,52.124 36.949,52.124 36.79,52.128 L36.787,52.128 C36.624,52.128 36.438,52.13 36.332,52.133 C28.81,52.063 22.405,47.278 19.883,40.559 C24.998,37.851 30.815,36.322 36.978,36.322 C42.283,36.322 47.331,37.456 51.894,39.497 C52.361,39.704 52.819,39.921 53.27,40.147 C57.82,42.406 61.84,45.585 65.096,49.442 C65.333,49.72 65.566,50.001 65.793,50.288 C70.898,56.69 73.956,64.822 73.956,73.658" id="Fill-3" fill="#008EB1"></path>
            <path d="M68.205,23.708 C61.566,20.656 50.553,18.167 41.337,16.904 C40.306,16.61 39.238,16.407 38.14,16.309 C37.781,16.274 37.422,16.252 37.057,16.243 L64.658,16.234 C64.796,16.458 65.173,16.968 65.317,17.212 C66.22,18.731 66.976,20.34 67.604,21.992 C67.818,22.559 68.021,23.132 68.205,23.708" id="Fill-4" fill="#007A4A"></path>
            <path d="M55.006,62.151 C54.99,62.163 54.978,62.173 54.963,62.181 C54.936,62.199 54.912,62.218 54.883,62.238 C54.883,62.238 54.879,62.238 54.879,62.239 C54.852,62.258 54.828,62.275 54.801,62.293 C54.554,62.45 54.31,62.612 54.058,62.771 C53.187,63.312 52.295,63.815 51.387,64.269 C51.029,64.45 50.67,64.623 50.305,64.79 C48.487,60.465 43.55,54.893 37.195,52.277 C37.069,52.224 36.954,52.181 36.828,52.128 C36.818,52.123 37.165,52.122 37.197,52.125 C44.694,52.191 51.255,56.173 55.006,62.151" id="Fill-5" fill="#007A4A"></path>
            <polygon id="Fill-6" fill="#0B3F5E" points="434.671 95.12 450.581 95.12 450.581 39.749 434.671 39.749"></polygon>
            <polygon id="Fill-7" fill="#0B3F5E" points="434.671 32.094 450.581 32.094 450.581 16.027 434.671 16.027"></polygon>
            <path d="M600,45.257 C600,49.051 596.911,51.89 593.236,51.89 C589.563,51.89 586.474,49.051 586.474,45.257 C586.474,41.464 589.563,38.596 593.236,38.596 C596.911,38.596 600,41.464 600,45.257 M598.497,45.257 C598.497,42.278 596.048,39.946 593.209,39.946 C590.398,39.946 587.949,42.278 587.949,45.257 C587.949,48.208 590.398,50.512 593.209,50.512 C596.048,50.512 598.497,48.208 598.497,45.257 M594.461,46.044 L596.104,48.18 L594.712,48.18 L593.182,46.186 L592.096,46.186 L592.096,48.18 L591.011,48.18 L591.011,42.024 L593.57,42.024 C594.906,42.024 595.909,42.868 595.909,44.133 C595.909,45.088 595.324,45.763 594.461,46.044 M593.543,45.173 C594.267,45.173 594.768,44.752 594.768,44.106 C594.768,43.487 594.267,43.066 593.543,43.066 L592.096,43.066 L592.096,45.173 L593.543,45.173" id="Fill-8" fill="#0B3F5E"></path>
            <path d="M151.109,52.067 L151.109,67.303 L169.517,67.303 C166.824,74.621 159.621,80.794 149.097,80.794 C134.218,80.794 124.953,69.682 124.953,56.75 C124.953,40.674 135.248,30.741 149.68,30.741 C155.641,30.741 163.35,32.424 167.906,39.748 L186.341,39.748 C180.589,23.097 165.309,14.905 149.444,14.905 C126.439,14.905 108.242,32.004 108.242,56.862 C108.242,78.591 125.176,96.743 148.986,96.743 C159.716,96.743 167.749,93.126 173.134,87.386 L173.134,95.12 L188.308,95.12 L188.308,52.067 L151.109,52.067" id="Fill-9" fill="#0B3F5E"></path>
            <path d="M236.55,75.354 C232.887,79.862 228.537,82.289 224.531,82.289 C217.089,82.289 212.739,77.551 212.739,68.767 L212.739,39.751 L196.829,39.751 L196.829,70.268 C196.829,86.335 206.443,96.854 220.867,96.854 C227.049,96.854 232.086,94.775 236.55,91.191 L236.55,95.121 L252.461,95.121 L252.461,39.751 L236.55,39.751 L236.55,75.354" id="Fill-10" fill="#0B3F5E"></path>
            <path d="M302.193,76.278 C298.644,81.019 293.95,82.637 289.257,82.637 C280.901,82.637 275.063,75.585 275.063,67.492 C275.063,59.286 280.901,52.12 289.257,52.12 C293.95,52.12 298.644,53.738 302.193,58.593 L302.193,76.278 Z M302.193,42.989 C297.957,40.213 292.807,38.595 286.624,38.595 C271.515,38.595 259.265,51.195 259.265,67.492 C259.265,83.562 271.515,96.276 286.624,96.276 C292.807,96.276 297.957,94.658 302.193,91.884 L302.193,95.121 L318.104,95.121 L318.104,39.751 L302.193,39.751 L302.193,42.989 Z" id="Fill-11" fill="#0B3F5E"></path>
            <path d="M343.938,39.751 L328.026,39.751 L328.026,95.121 L343.938,95.121 L343.938,62.062 C348.516,56.975 354.583,54.431 363.169,54.084 L363.169,38.825 C355.041,38.825 348.86,41.371 343.938,45.993 L343.938,39.751" id="Fill-12" fill="#0B3F5E"></path>
            <path d="M407.577,76.278 C404.027,81.135 399.334,82.752 394.641,82.752 C386.285,82.752 380.446,75.585 380.446,67.379 C380.446,59.286 386.285,52.236 394.641,52.236 C399.334,52.236 404.027,53.854 407.577,58.593 L407.577,76.278 Z M407.577,42.989 C403.341,40.213 398.19,38.595 392.008,38.595 C376.898,38.595 364.648,51.311 364.648,67.379 C364.648,83.677 376.898,96.276 392.008,96.276 C398.19,96.276 403.341,94.658 407.577,91.884 L407.577,95.121 L423.487,95.121 L423.487,16.027 L407.577,16.027 L407.577,42.989 Z" id="Fill-13" fill="#0B3F5E"></path>
            <path d="M500.975,76.278 C497.425,81.019 492.731,82.637 488.038,82.637 C479.683,82.637 473.844,75.585 473.844,67.492 C473.844,59.286 479.683,52.12 488.038,52.12 C492.731,52.12 497.425,53.738 500.975,58.593 L500.975,76.278 Z M500.975,42.989 C496.738,40.213 491.588,38.595 485.405,38.595 C470.296,38.595 458.047,51.195 458.047,67.492 C458.047,83.562 470.296,96.276 485.405,96.276 C491.588,96.276 496.738,94.658 500.975,91.884 L500.975,95.121 L516.885,95.121 L516.885,39.751 L500.975,39.751 L500.975,42.989 Z" id="Fill-14" fill="#0B3F5E"></path>
            <path d="M557.916,38.017 C551.735,38.017 546.698,40.097 542.233,43.681 L542.233,39.75 L526.321,39.75 L526.321,95.121 L542.233,95.121 L542.233,59.517 C545.897,55.009 550.247,52.582 554.254,52.582 C561.693,52.582 566.043,57.323 566.043,66.108 L566.043,95.121 L581.955,95.121 L581.955,64.72 C581.955,48.535 572.341,38.017 557.916,38.017" id="Fill-15" fill="#0B3F5E"></path>
        </g>
    </g>
</svg>